<svg width="12" height="12" viewBox="0 0 12 12" fill="none" xmlns="http://www.w3.org/2000/svg">
    <path d="M11 4.5748C11.0002 3.92724 10.7542 3.29182 10.2884 2.73642C9.82263 2.18103 9.15453 1.72652 8.35547 1.42146C7.55641 1.1164 6.65643 0.972251 5.75167 1.00441C4.84692 1.03657 3.97138 1.24384 3.2186 1.60406C2.46583 1.96428 1.86409 2.46393 1.47769 3.04962C1.09129 3.63531 0.934731 4.28503 1.02475 4.92938C1.11477 5.57374 1.44798 6.1885 1.98879 6.708C2.52959 7.22749 3.25767 7.6322 4.09524 7.87889V9H7.90476V7.87889C8.82044 7.6092 9.60346 7.15119 10.1545 6.56295C10.7056 5.97472 10.9998 5.28275 11 4.5748Z" fill="#E5E6EB"/>
    <path d="M7.81268 1C8.72438 1.60147 9.30195 2.40814 9.44343 3.27761C9.58491 4.14708 9.2812 5.02344 8.58593 5.75199C7.89065 6.48054 6.84852 7.01442 5.64349 7.25939C4.43846 7.50436 3.14803 7.44466 2 7.09084C2.47647 7.4073 3.03288 7.65951 3.64108 7.83473V9H7.70128V7.83473C8.66772 7.5573 9.49574 7.08782 10.0822 6.48474C10.6687 5.88165 10.9878 5.17162 10.9997 4.44305C11.0115 3.71448 10.7157 2.99958 10.149 2.38736C9.58234 1.77514 8.76983 1.29266 7.81268 1Z" fill="#D9DAE2"/>
    <path d="M4 10V10.4286C4 10.5801 4.12041 10.7255 4.33474 10.8326C4.54906 10.9398 4.83975 11 5.14286 11H6.85714C7.16025 11 7.45094 10.9398 7.66526 10.8326C7.87959 10.7255 8 10.5801 8 10.4286V10H4Z" fill="#0468AD"/>
    <path d="M9 9H3V11H9V9Z" fill="#CCEAFF"/>
    <path d="M8.3842 4.22262C8.31385 4.13164 8.26477 4.06806 8.19474 3.97673L8.37274 3.60437L7.87081 3.33494L7.17876 3.43225L6.72067 3.33055L6.35649 3H5.64645L5.28096 3.32967L4.82287 3.43137L4.12919 3.33582L3.62726 3.60525L3.80526 3.97761L3.6158 4.2235L3 4.41899V4.80012L3.61744 4.99543C3.68779 5.08641 3.73687 5.15 3.80689 5.24133L3.62889 5.61368L4.13083 5.88311L4.82451 5.78756C4.994 5.82515 5.17691 5.97725 5.3464 6.01589V9H6.65523V6.01414C6.82473 5.97638 7.00764 5.82427 7.17713 5.78581L7.87081 5.88136L8.37274 5.61193L8.19474 5.23957L8.3842 4.99368L9 4.79819V4.41705L8.3842 4.22262ZM6.00082 5.13594C5.80667 5.13594 5.61689 5.10504 5.45546 5.04714C5.29403 4.98924 5.16821 4.90695 5.09392 4.81067C5.01962 4.71439 5.00018 4.60844 5.03806 4.50623C5.07593 4.40402 5.16942 4.31013 5.30671 4.23644C5.44399 4.16275 5.6189 4.11257 5.80931 4.09224C5.99973 4.0719 6.1971 4.08234 6.37647 4.12222C6.55584 4.1621 6.70914 4.22964 6.81701 4.31629C6.92487 4.40294 6.98244 4.50481 6.98244 4.60903C6.98244 4.74877 6.87902 4.8828 6.69493 4.98161C6.51084 5.08043 6.26116 5.13594 6.00082 5.13594Z" fill="#027DE5"/>
    <path d="M8.25 9V9.75H3V10.25H8.25V11H9V9H8.25Z" fill="#85B4E0"/>
    <path d="M3.5 2L4 1.5H3.5V1L3 1.5H2.5V2L2 2.5H2.5V3L3 2.5H3.5V2Z" fill="white"/>
    <path d="M6 0C4.62659 0.000291735 3.29487 0.345904 2.22709 0.979155C1.15931 1.61241 0.420089 2.49498 0.132791 3.47958C-0.154507 4.46418 0.0275049 5.49123 0.648448 6.38932C1.26939 7.28741 2.2917 8.0022 3.54475 8.4144V11C3.54475 11.053 3.57349 11.1039 3.62465 11.1414C3.67581 11.1789 3.7452 11.2 3.81755 11.2H3.84483C3.90815 11.4257 4.07568 11.6285 4.31917 11.7743C4.56267 11.92 4.86725 11.9997 5.18158 12H6.81842C7.13275 11.9997 7.43733 11.92 7.68083 11.7743C7.92432 11.6285 8.09185 11.4257 8.15517 11.2H8.18245C8.2548 11.2 8.32419 11.1789 8.37535 11.1414C8.42651 11.1039 8.45525 11.053 8.45525 11V8.4144C9.7083 8.0022 10.7306 7.28741 11.3516 6.38932C11.9725 5.49123 12.1545 4.46418 11.8672 3.47958C11.5799 2.49498 10.8407 1.61241 9.77291 0.979155C8.70513 0.345904 7.37341 0.000291735 6 0ZM7.90964 10.8H4.09036V10.4H7.36403V10H4.09036V9.6H7.90964V10.8ZM6.81842 11.6H5.18158C5.01292 11.5995 4.84859 11.5608 4.71107 11.4892C4.57356 11.4176 4.46958 11.3166 4.41336 11.2H7.58664C7.53042 11.3166 7.42644 11.4176 7.28893 11.4892C7.15141 11.5608 6.98708 11.5995 6.81842 11.6ZM8.07824 8.0978C8.0283 8.11293 7.98563 8.13859 7.95561 8.17153C7.9256 8.20446 7.9096 8.24319 7.90964 8.2828V9.2H4.09036V8.2828C4.0904 8.24319 4.0744 8.20446 4.04439 8.17153C4.01437 8.13859 3.9717 8.11293 3.92176 8.0978C2.75378 7.74505 1.78894 7.10613 1.19186 6.29003C0.594777 5.47393 0.40245 4.53122 0.647694 3.62276C0.892938 2.7143 1.56056 1.89636 2.53664 1.30852C3.51273 0.720671 4.73679 0.399335 6 0.399335C7.26321 0.399335 8.48728 0.720671 9.46336 1.30852C10.4394 1.89636 11.1071 2.7143 11.3523 3.62276C11.5975 4.53122 11.4052 5.47393 10.8081 6.29003C10.2111 7.10613 9.24622 7.74505 8.07824 8.0978Z" fill="black"/>
</svg>