<svg width="8" height="11" viewBox="0 0 8 11" fill="none" xmlns="http://www.w3.org/2000/svg">
<path d="M4.71819 2.58251L6.22127 3.54844M0.663294 10.4885L0.653421 10.3396C0.618509 9.81287 0.601051 9.54949 0.634174 9.29309C0.663567 9.06556 0.722399 8.84264 0.809233 8.62986C0.907075 8.39001 1.05256 8.16831 1.34353 7.72494L5.38046 1.57328C5.65118 1.16078 6.20709 1.04262 6.62218 1.30934C7.03722 1.57608 7.15426 2.1267 6.88359 2.53919L2.77255 8.80371C2.50859 9.20598 2.3766 9.40709 2.21416 9.57923C2.06998 9.73203 1.90827 9.86762 1.73234 9.98318C1.53414 10.1134 1.31221 10.209 0.868392 10.4001L0.663294 10.4885Z" stroke="#A2A2A2" stroke-linecap="round" stroke-linejoin="round"/>
</svg>
